<svg width="189" height="131" viewBox="0 0 189 131" fill="none" xmlns="http://www.w3.org/2000/svg">
<g clip-path="url(#clip0_356_29289)" filter="url(#filter0_d_356_29289)">
<path d="M23.0988 49.442C13.9865 58.5542 13.9865 73.3281 23.0988 82.4403C32.211 91.5526 46.9848 91.5526 56.0971 82.4403C65.2093 73.3281 65.2093 58.5542 56.0971 49.442C46.9848 40.3298 32.211 40.3298 23.0988 49.442Z" fill="url(#paint0_linear_356_29289)"/>
<path fill-rule="evenodd" clip-rule="evenodd" d="M31.3482 57.6916C32.2594 56.7804 33.7368 56.7804 34.648 57.6916L39.5978 62.6413L44.5475 57.6916C45.4588 56.7804 46.9361 56.7804 47.8474 57.6916C48.7586 58.6028 48.7586 60.0802 47.8474 60.9914L42.8976 65.9412L47.8474 70.8909C48.7586 71.8021 48.7586 73.2795 47.8474 74.1907C46.9361 75.102 45.4588 75.102 44.5475 74.1907L39.5978 69.241L34.648 74.1907C33.7368 75.102 32.2594 75.102 31.3482 74.1907C30.437 73.2795 30.437 71.8021 31.3482 70.8909L36.298 65.9412L31.3482 60.9914C30.437 60.0802 30.437 58.6028 31.3482 57.6916Z" fill="white"/>
</g>
<defs>
<filter id="filter0_d_356_29289" x="-10" y="-15.6567" width="215.196" height="215.196" filterUnits="userSpaceOnUse" color-interpolation-filters="sRGB">
<feFlood flood-opacity="0" result="BackgroundImageFix"/>
<feColorMatrix in="SourceAlpha" type="matrix" values="0 0 0 0 0 0 0 0 0 0 0 0 0 0 0 0 0 0 127 0" result="hardAlpha"/>
<feOffset dx="58" dy="26"/>
<feGaussianBlur stdDeviation="34"/>
<feComposite in2="hardAlpha" operator="out"/>
<feColorMatrix type="matrix" values="0 0 0 0 0.135417 0 0 0 0 0.173611 0 0 0 0 0.364583 0 0 0 0.06 0"/>
<feBlend mode="normal" in2="BackgroundImageFix" result="effect1_dropShadow_356_29289"/>
<feBlend mode="normal" in="SourceGraphic" in2="effect1_dropShadow_356_29289" result="shape"/>
</filter>
<linearGradient id="paint0_linear_356_29289" x1="6.59961" y1="65.9412" x2="72.5962" y2="65.9412" gradientUnits="userSpaceOnUse">
<stop stop-color="#6B73FF"/>
<stop offset="1" stop-color="#000DFF"/>
</linearGradient>
<clipPath id="clip0_356_29289">
<rect width="56" height="56" fill="white" transform="translate(0 65.9412) rotate(-45)"/>
</clipPath>
</defs>
</svg>
