<svg width="177" height="64" viewBox="0 0 177 64" fill="none" xmlns="http://www.w3.org/2000/svg">
<g filter="url(#filter0_d_656_2662)">
<path d="M30.5 12C19.4543 12 10.5 20.9543 10.5 32C10.5 43.0457 19.4543 52 30.5 52C41.5457 52 50.5 43.0457 50.5 32C50.5 20.9543 41.5457 12 30.5 12Z" fill="url(#paint0_linear_656_2662)"/>
<path fill-rule="evenodd" clip-rule="evenodd" d="M30.5 22C31.6046 22 32.5 22.8954 32.5 24V30H38.5C39.6046 30 40.5 30.8954 40.5 32C40.5 33.1046 39.6046 34 38.5 34H32.5V40C32.5 41.1046 31.6046 42 30.5 42C29.3954 42 28.5 41.1046 28.5 40V34H22.5C21.3954 34 20.5 33.1046 20.5 32C20.5 30.8954 21.3954 30 22.5 30H28.5V24C28.5 22.8954 29.3954 22 30.5 22Z" fill="white"/>
</g>
<defs>
<filter id="filter0_d_656_2662" x="-3.5" y="-34" width="184" height="184" filterUnits="userSpaceOnUse" color-interpolation-filters="sRGB">
<feFlood flood-opacity="0" result="BackgroundImageFix"/>
<feColorMatrix in="SourceAlpha" type="matrix" values="0 0 0 0 0 0 0 0 0 0 0 0 0 0 0 0 0 0 127 0" result="hardAlpha"/>
<feOffset dx="58" dy="26"/>
<feGaussianBlur stdDeviation="34"/>
<feComposite in2="hardAlpha" operator="out"/>
<feColorMatrix type="matrix" values="0 0 0 0 0.135417 0 0 0 0 0.173611 0 0 0 0 0.364583 0 0 0 0.06 0"/>
<feBlend mode="normal" in2="BackgroundImageFix" result="effect1_dropShadow_656_2662"/>
<feBlend mode="normal" in="SourceGraphic" in2="effect1_dropShadow_656_2662" result="shape"/>
</filter>
<linearGradient id="paint0_linear_656_2662" x1="10.5" y1="12" x2="50.5" y2="52" gradientUnits="userSpaceOnUse">
<stop stop-color="#6B73FF"/>
<stop offset="1" stop-color="#000DFF"/>
</linearGradient>
</defs>
</svg>
